<svg width="24" height="24" viewBox="0 0 24 24" fill="none" xmlns="http://www.w3.org/2000/svg">
<path d="M11.7681 14.9946C12.363 14.9946 12.8568 15.4587 12.8569 16.0435C12.8569 16.6283 12.353 17.0923 11.7681 17.0923C11.1832 17.0922 10.6792 16.6182 10.6792 16.0435C10.6793 15.4688 11.1732 14.9947 11.7681 14.9946Z" fill="black"/>
<path d="M12.1011 6.8374C13.8153 6.83746 15.3081 7.74456 15.3081 9.41846C15.3081 10.6286 14.6114 11.2135 13.6333 11.8589C12.9276 12.3226 12.605 12.6859 12.605 13.2505V13.3716C12.6049 13.7647 12.2926 14.0873 11.7886 14.0874C11.2743 14.0874 10.9819 13.8149 10.9819 13.2905V13.1597C10.9819 12.1714 11.5263 11.6365 12.2524 11.1323C13.1293 10.5175 13.5531 10.1849 13.5532 9.49951C13.5532 8.73315 12.9581 8.20854 12.0405 8.2085C11.3649 8.2085 10.8408 8.55138 10.4878 9.13623L10.3062 9.37842C10.1247 9.6203 9.90268 9.78164 9.56006 9.78174C9.22728 9.78174 8.87451 9.53923 8.87451 9.08545C8.87454 8.9141 8.90419 8.75259 8.95459 8.59131C9.22696 7.66365 10.3668 6.8374 12.1011 6.8374Z" fill="black"/>
<path fill-rule="evenodd" clip-rule="evenodd" d="M11.9897 1.71436C17.6167 1.71436 22.2856 6.37361 22.2856 12.0005C22.2854 17.617 17.6271 22.2854 12.0005 22.2856C6.38383 22.2856 1.71459 17.6172 1.71436 12.0005C1.71436 6.37369 6.37304 1.7145 11.9897 1.71436ZM11.9897 3.42822C7.2302 3.42836 3.43896 7.24093 3.43896 12.0005C3.43919 16.76 7.24098 20.5718 12.0005 20.5718C16.7599 20.5716 20.5716 16.7599 20.5718 12.0005C20.5718 7.24084 16.7495 3.42822 11.9897 3.42822Z" fill="black"/>
</svg>
