<svg width="24" height="24" viewBox="0 0 24 24" fill="none" xmlns="http://www.w3.org/2000/svg">
<path fill-rule="evenodd" clip-rule="evenodd" d="M18.1035 2.04658C18.7098 1.24487 19.735 1.76682 19.3623 2.72725L16.583 9.98408H21.8525C22.2443 9.98408 22.5244 10.2546 22.5244 10.6091C22.5244 10.8234 22.4406 11.01 22.2822 11.2058L13.8037 22.1091C13.1975 22.9018 12.1713 22.38 12.5439 21.4196L15.3232 14.1716H10.0537C9.66207 14.1715 9.38283 13.9015 9.38281 13.5378C9.38281 13.3326 9.46649 13.1463 9.625 12.9411L18.1035 2.04658ZM11.7139 12.7819H17.4785L14.9229 18.3571L20.1836 11.3737H14.4287L16.9785 5.79268L11.7139 12.7819Z" fill="black"/>
<path d="M11.3037 17.2497C11.6881 17.2499 11.9999 17.5857 12 17.9997C12 18.4138 11.6882 18.7495 11.3037 18.7497H3.80371C3.41908 18.7497 3.10742 18.4139 3.10742 17.9997C3.10754 17.5856 3.41916 17.2497 3.80371 17.2497H11.3037Z" fill="black"/>
<path d="M7.5752 11.2497C7.94782 11.2498 8.24988 11.5857 8.25 11.9997C8.25 12.4138 7.9479 12.7496 7.5752 12.7497H2.1748C1.8021 12.7496 1.5 12.4138 1.5 11.9997C1.50012 11.5857 1.80218 11.2498 2.1748 11.2497H7.5752Z" fill="black"/>
<path d="M12.0537 5.24971C12.4382 5.24975 12.7499 5.58563 12.75 5.99971C12.75 6.4139 12.4383 6.74967 12.0537 6.74971H5.41113C5.02651 6.74971 4.71484 6.41392 4.71484 5.99971C4.71497 5.5856 5.02658 5.24971 5.41113 5.24971H12.0537Z" fill="black"/>
</svg>
