<svg xmlns="http://www.w3.org/2000/svg" width="24" height="24" viewBox="0 0 24 24" fill="none">
  <path fill-rule="evenodd" clip-rule="evenodd" d="M11.8659 3.43872C12.5288 3.43872 13.021 3.97109 13.021 4.62399V20.0325C13.021 20.6854 12.5288 21.1575 11.886 21.1575C11.4038 21.1575 11.0322 20.9566 10.55 20.5247L6.01988 16.4666C5.94957 16.4064 5.86921 16.3762 5.77881 16.3762H2.896C1.53997 16.3762 0.856934 15.6932 0.856934 14.2367V10.3896C0.856934 8.93315 1.52992 8.24006 2.896 8.24006H5.77881C5.86921 8.24006 5.94957 8.20992 6.01988 8.14966L10.55 4.1318C11.0723 3.65972 11.3837 3.43873 11.8659 3.43872ZM11.3235 5.47778C11.2532 5.47778 11.2029 5.50792 11.1527 5.55814L6.87367 9.44542C6.64265 9.65635 6.44175 9.70658 6.18059 9.70658H2.96631C2.59465 9.70658 2.4239 9.87734 2.4239 10.259V14.3673C2.4239 14.7389 2.59466 14.9097 2.96631 14.9097H6.18059C6.44175 14.9097 6.64265 14.9699 6.87367 15.1709L11.1527 19.0381C11.2129 19.0883 11.2732 19.1184 11.3235 19.1184C11.3938 19.1184 11.454 19.0582 11.454 18.9677V5.61841C11.454 5.52802 11.3938 5.4778 11.3235 5.47778Z" fill="#fff"/>
  <path d="M21.6016 8.04168C21.8795 7.81589 22.3044 7.82125 22.5693 8.08688L22.5701 8.08604C22.8679 8.36767 22.8557 8.84467 22.5735 9.12148L22.5743 9.12231L19.7861 11.9097L22.5718 14.7004L22.622 14.7548C22.8563 15.0352 22.8473 15.4628 22.5751 15.7317L22.576 15.7325C22.3116 16.0044 21.8817 16.011 21.6016 15.7836L21.5481 15.735L18.7548 12.9418L15.9674 15.735C15.6921 16.01 15.2184 16.0219 14.9362 15.7342L14.9353 15.735C14.6495 15.449 14.6584 14.9802 14.9353 14.703L17.7277 11.9097L14.9362 9.12231C14.6606 8.84628 14.6479 8.37046 14.9378 8.08855C15.2202 7.80286 15.6927 7.81596 15.9674 8.09023L18.7548 10.8826L21.5481 8.09023L21.6016 8.04168Z" fill="#fff"/>
</svg>