<svg width="105" height="105" viewBox="0 0 105 105" fill="none" xmlns="http://www.w3.org/2000/svg">
<path d="M52.5 0C23.5 0 0 23.5 0 52.5C0 81.5 23.5 105 52.5 105C81.5 105 105 81.5 105 52.5C105 23.5 81.5 0 52.5 0ZM91.5 76.3L76.6 91.2C74.5 93.3 71.2 93.3 69.1 91.2L52.3 74.4L35.5 91.2C33.4 93.3 30.1 93.3 28 91.2L13.1 76.3C11 74.2 11 70.9 13.1 68.8L29.9 52L13.1 35.2C11 33.1 11 29.8 13.1 27.7L28 12.8C30.1 10.7 33.4 10.7 35.5 12.8L52.3 29.6L69.1 12.8C71.2 10.7 74.5 10.7 76.6 12.8L91.5 27.7C93.6 29.8 93.6 33.1 91.5 35.2L74.7 52L91.5 68.8C93.6 70.9 93.6 74.2 91.5 76.3Z" fill="#FF003A"/>
</svg>
