<svg width="24" height="24" viewBox="0 0 24 24" fill="none" xmlns="http://www.w3.org/2000/svg">
<path d="M18.4284 11.2061L16.3937 13.8256L15.3093 12.7412L16.3392 11.3739H13.942L11.6309 9.0628L13.1248 5.79313L11.0784 8.51025L10.0357 7.4676L14.2499 2.04677C14.8654 1.24463 15.8821 1.76696 15.5183 2.72765L12.7295 9.98419H18.0087C18.4004 9.98419 18.671 10.2546 18.671 10.6091C18.671 10.8236 18.587 11.0102 18.4284 11.2061Z" fill="black"/>
<path d="M9.95935 22.1095L14.1582 16.7038L13.1122 15.6584L11.0749 18.3633L12.562 15.1087L10.2341 12.7823H7.86073L8.87997 11.4291L7.79723 10.347L5.78078 12.9409C5.61289 13.1461 5.52895 13.3326 5.52895 13.5378C5.52895 13.9016 5.80876 14.1721 6.2005 14.1721H11.4797L8.69085 21.4193C8.31777 22.38 9.34376 22.9023 9.95935 22.1095Z" fill="black"/>
<path d="M19.6409 19.6192C19.3705 19.8989 18.9041 19.8989 18.6243 19.6192L4.54027 5.54444C4.26978 5.27396 4.26978 4.79827 4.54027 4.52779C4.81075 4.24797 5.28644 4.24797 5.56625 4.52779L19.6409 18.6025C19.9208 18.8916 19.9208 19.3486 19.6409 19.6192Z" fill="black"/>
</svg>
