<svg xmlns="http://www.w3.org/2000/svg" width="24" height="24" viewBox="0 0 24 24" fill="none">
  <path fill-rule="evenodd" clip-rule="evenodd" d="M11.8659 3.43872C12.5288 3.43872 13.021 3.97109 13.021 4.62399V20.0325C13.021 20.6854 12.5288 21.1575 11.886 21.1575C11.4038 21.1575 11.0322 20.9566 10.55 20.5247L6.01988 16.4666C5.94957 16.4064 5.86921 16.3762 5.77881 16.3762H2.896C1.53997 16.3762 0.856934 15.6932 0.856934 14.2367V10.3896C0.856934 8.93315 1.52992 8.24006 2.896 8.24006H5.77881C5.86921 8.24006 5.94957 8.20992 6.01988 8.14966L10.55 4.1318C11.0723 3.65972 11.3837 3.43873 11.8659 3.43872ZM11.3235 5.47778C11.2532 5.47778 11.2029 5.50792 11.1527 5.55814L6.87367 9.44542C6.64265 9.65635 6.44175 9.70658 6.18059 9.70658H2.96631C2.59465 9.70658 2.4239 9.87734 2.4239 10.259V14.3673C2.4239 14.7389 2.59466 14.9097 2.96631 14.9097H6.18059C6.44175 14.9097 6.64265 14.9699 6.87367 15.1709L11.1527 19.0381C11.2129 19.0883 11.2732 19.1184 11.3235 19.1184C11.3938 19.1184 11.454 19.0582 11.454 18.9677V5.61841C11.454 5.52802 11.3938 5.4778 11.3235 5.47778Z" fill="#fff"/>
  <path d="M20.1326 5.38738C20.5042 5.13638 20.9663 5.22671 21.2375 5.60836C22.5333 7.35612 23.2766 9.8071 23.2766 12.2881C23.2766 14.7691 22.5232 17.1999 21.2375 18.9677C20.9663 19.3494 20.5042 19.4398 20.1326 19.1887C19.7609 18.9377 19.7108 18.4655 19.992 18.0537C21.0667 16.4867 21.7197 14.4275 21.7197 12.2881C21.7197 10.1486 21.0869 8.06929 19.992 6.52243C19.7007 6.11059 19.7609 5.63849 20.1326 5.38738Z" fill="#fff"/>
  <path d="M16.4161 8.00903C16.7476 7.76796 17.2197 7.84832 17.4909 8.24006C18.2643 9.26461 18.7264 10.7513 18.7264 12.2881C18.7263 13.8249 18.2643 15.3216 17.4909 16.336C17.2197 16.7277 16.7476 16.7981 16.4161 16.5671C16.0043 16.2758 15.9541 15.7936 16.2554 15.3718C16.8279 14.5582 17.1694 13.4532 17.1694 12.2881C17.1694 11.1229 16.8379 10.0079 16.2554 9.20435C15.9441 8.79253 16.0044 8.29029 16.4161 8.00903Z" fill="#fff"/>
</svg>