<svg width="58" height="133" viewBox="0 0 58 133" fill="none" xmlns="http://www.w3.org/2000/svg">
<g clip-path="url(#clip0_885_120293)">
<g opacity="0.3">
<path d="M40.4093 174.066C63.0753 151.4 63.0753 114.651 40.4093 91.9849C17.7432 69.3189 -19.0057 69.3189 -41.6717 91.9849C-64.3377 114.651 -64.3377 151.4 -41.6717 174.066C-19.0057 196.732 17.7432 196.732 40.4093 174.066Z" stroke="white" stroke-width="0.67" stroke-miterlimit="10"/>
<path d="M47.02 99.9102H-48.27" stroke="white" stroke-width="0.67" stroke-miterlimit="10"/>
<path d="M32.49 85.3901V180.67" stroke="white" stroke-width="0.67" stroke-miterlimit="10"/>
<path d="M40.4038 107.581C63.0698 84.9145 63.0698 48.1656 40.4038 25.4995C17.7378 2.83352 -19.0112 2.83355 -41.6772 25.4996C-64.3432 48.1656 -64.3432 84.9145 -41.6772 107.581C-19.0111 130.247 17.7377 130.247 40.4038 107.581Z" stroke="white" stroke-width="0.67" stroke-miterlimit="10"/>
<path d="M57.4 66.54H-58.65" stroke="white" stroke-width="0.67" stroke-miterlimit="10"/>
<path d="M47.02 33.4199H-48.27" stroke="white" stroke-width="0.67" stroke-miterlimit="10"/>
<path d="M47.02 99.6602H-48.27" stroke="white" stroke-width="0.67" stroke-miterlimit="10"/>
<path d="M32.49 18.8901V114.18" stroke="white" stroke-width="0.67" stroke-miterlimit="10"/>
<path d="M55.8331 14.0783C63.3868 -17.0736 44.2567 -48.4507 13.1048 -56.0044C-18.0471 -63.5581 -49.4241 -44.4279 -56.9779 -13.276C-64.5316 17.8758 -45.4015 49.2529 -14.2496 56.8066C16.9023 64.3603 48.2794 45.2302 55.8331 14.0783Z" stroke="white" stroke-width="0.67" stroke-miterlimit="10"/>
<path d="M57.4 0.370117H-58.65" stroke="white" stroke-width="0.67" stroke-miterlimit="10"/>
<path d="M47.02 33.4902H-48.27" stroke="white" stroke-width="0.67" stroke-miterlimit="10"/>
<path d="M32.49 -47.27V48.02" stroke="white" stroke-width="0.67" stroke-miterlimit="10"/>
</g>
</g>
<defs>
<clipPath id="clip0_885_120293">
<rect width="58" height="133" fill="white"/>
</clipPath>
</defs>
</svg>
