<svg width="24" height="24" viewBox="0 0 24 24" fill="none" xmlns="http://www.w3.org/2000/svg">
<g id="icon/part-cashout">
<g id="Union">
<path d="M17.1319 3.09272L22.9994 2.05859L21.646 3.97327C21.7259 4.08772 21.8045 4.20305 21.8805 4.32014C22.048 4.57688 22.2063 4.83917 22.3554 5.10699C22.6525 5.64117 22.9121 6.19537 23.1324 6.76557C23.5686 7.89743 23.844 9.08487 23.9505 10.2932C24.1633 12.6898 23.6916 15.1063 22.6288 17.2011C21.577 19.2833 19.9615 21.0282 17.9664 22.237C16.0112 23.4286 13.7389 24.0352 11.5109 23.9984C9.28168 23.969 7.09588 23.307 5.26932 22.1283C3.45623 20.962 2.00509 19.3123 1.07956 17.3653C0.169731 15.4553 -0.16625 13.316 0.0763208 11.2769C0.312861 9.2357 1.12692 7.29572 2.37729 5.73894C1.29742 7.41973 0.724894 9.38045 0.705624 11.3182C0.681204 13.2569 1.20871 15.1677 2.19135 16.769C3.17032 18.3724 4.5875 19.6763 6.2143 20.4884C7.83978 21.3073 9.67208 21.6408 11.4277 21.4759C13.1858 21.3156 14.8563 20.6558 16.2078 19.6176C17.5684 18.5799 18.6018 17.1852 19.1766 15.6458C19.7574 14.1071 19.8846 12.4281 19.5709 10.8722C19.4168 10.101 19.1551 9.35534 18.7934 8.65701C18.7292 8.53344 18.6611 8.41252 18.591 8.29293L17.1315 10.3569L17.1319 3.09272Z" fill="white"/>
<path d="M6.99976 7.61851V5.14446L12.6547 4V16H9.9114V6.89481L6.99976 7.61851Z" fill="white"/>
</g>
</g>
</svg>
