<svg width="88" height="88" viewBox="0 0 88 88" fill="none" xmlns="http://www.w3.org/2000/svg">
<g id="icon/vortex">
<path id="Vector" d="M63.793 43.0632C63.8041 42.9936 63.8147 42.9239 63.825 42.8542C63.9756 41.8292 64.0362 40.7929 64.0063 39.757C63.741 28.9851 55.1573 20.3138 44.4509 18.6058C38.3066 17.6207 32.5728 18.8456 27.2878 22.0196C20.4411 26.1321 16.1343 32.1582 14.1069 39.8109C13.9245 40.499 13.8079 41.2044 13.6878 41.9088C13.6609 42.0356 13.63 42.3959 13.5144 42.7132C13.4558 42.8423 13.3664 42.9123 13.2787 42.9249C13.1596 42.942 13.0436 42.8528 13.0121 42.6612C12.9739 42.4291 13.0381 42.1287 13.0423 42.0065C13.493 38.54 14.4293 35.2106 16.0222 32.0737C18.3078 27.5722 21.72 23.6486 25.8796 20.8036C32.7556 16.1005 41.5457 14.7275 49.5539 17.2332C63.7339 21.6701 71.6829 37.3152 65.1046 50.6552C62.3975 56.145 57.5395 60.5643 51.1299 62.1637C41.2765 64.6223 29.883 58.4288 28.257 48.3438C27.0562 40.8954 31.3564 32.4529 39.4526 31.1128C42.6311 30.5867 45.9819 31.3816 48.495 33.1994C50.9109 34.9468 52.3874 37.7514 52.4812 40.5272C52.5597 42.8494 51.6704 45.1513 49.5539 46.7971C47.5193 48.3799 43.0378 48.631 42.1481 45.6462C41.7968 44.4676 42.2336 43.1378 44.0008 42.6195C44.6959 42.4936 44.9565 42.1537 44.8262 41.474C44.6818 40.7338 44.2898 40.1549 43.7568 39.757C41.5359 38.099 38.5927 39.8952 37.4199 41.9088C36.7076 43.1317 36.3669 44.5928 36.4369 45.9539C36.6827 50.7263 41.3699 54.1699 46.0326 54.3139C52.7444 54.5212 58.0733 49.039 58.9545 42.7998C59.3398 40.0705 59.1318 37.4111 58.0388 34.8526C55.2342 28.2868 48.275 23.9895 41.0021 24.2654C30.8421 24.6468 22.5976 32.7085 21.3855 42.4078C20.3546 50.6375 23.0675 57.5207 29.1814 63.0845C32.8578 66.4262 37.2249 68.4913 42.1481 69.2621C49.5947 70.4266 56.4376 68.8088 62.5245 64.4008C68.7366 59.9036 72.5072 53.805 74.0537 46.3434C74.1942 45.6642 74.2792 44.9739 74.3786 44.2866C74.4107 44.0641 74.4354 43.5696 74.77 43.6073C74.9043 43.6225 74.9648 43.7285 74.9879 43.8643C75.0229 44.0697 74.972 44.3431 74.9611 44.4719C74.9203 44.9546 74.8696 45.4343 74.8088 45.9109C73.9765 52.431 70.8966 58.4652 66.3666 63.0845C60.6549 68.9087 52.6381 72.4836 43.9148 71.9469C31.5925 71.1884 20.8513 62.487 18.183 50.6552C16.9685 45.2697 17.5903 39.727 19.7171 34.8526C21.7599 30.1706 25.1913 26.1052 29.7179 23.3881C39.4522 17.5444 52.8502 19.6329 59.6874 28.8631C61.7699 31.6756 63.0758 34.7983 63.5619 38.253C63.7825 39.8482 63.7997 41.4644 63.6133 43.0632C63.5893 43.2201 63.7342 43.31 63.793 43.0632Z" fill="white"/>
</g>
</svg>
