<svg width="74" height="77" viewBox="0 0 74 77" fill="none" xmlns="http://www.w3.org/2000/svg">
<path d="M1.34777 40.6217C1.13796 40.4005 1.03726 40.1303 1.04565 39.8111C1.05404 39.475 1.16818 39.2065 1.38637 39.0038C1.60625 38.8012 1.8664 38.7032 2.16852 38.7117C2.47064 38.7184 2.72576 38.8299 2.93556 39.0427C3.14537 39.2555 3.24607 39.5308 3.23768 39.8651C3.22929 40.1843 3.11683 40.4495 2.89696 40.6606C2.67709 40.8717 2.41693 40.973 2.11481 40.9662C1.81269 40.9595 1.55757 40.8447 1.34777 40.6234V40.6217Z" fill="#B66DF8"/>
<path d="M0.6848 26.6782L8.52979 29.5357L7.84331 31.4406L0 28.5849L0.6848 26.6799V26.6782ZM2.59318 21.3787L10.4382 24.2362L9.75336 26.1411L1.90838 23.2837L2.59485 21.3787H2.59318ZM3.04803 29.0949L5.1981 23.1182L6.90171 23.738L4.75164 29.7147L3.04803 29.0949Z" fill="#B66DF8"/>
<path d="M6.19507 19.6443C5.91142 19.1376 5.73854 18.6023 5.67644 18.0399C5.61434 17.4775 5.66805 16.9135 5.83421 16.3477C6.00205 15.782 6.279 15.2449 6.66671 14.7366C7.05947 14.2232 7.50425 13.8145 8.00274 13.5088C8.50124 13.2031 9.02826 13.0089 9.58383 12.9245C10.1394 12.8401 10.6966 12.8721 11.2539 13.0208C11.8111 13.1694 12.3448 13.4413 12.8551 13.8365C13.3653 14.2316 13.7682 14.6809 14.0636 15.1875C14.359 15.6941 14.5419 16.2278 14.6124 16.7919C14.6829 17.3559 14.6376 17.9234 14.4765 18.4942C14.3153 19.065 14.0367 19.6105 13.6389 20.1307C13.2361 20.6576 12.7829 21.0713 12.2744 21.3753C11.7675 21.6793 11.2337 21.8685 10.6731 21.9444C10.1142 22.0204 9.55361 21.9799 8.99134 21.8229C8.42907 21.6658 7.89365 21.3905 7.3834 20.9953C6.87316 20.6002 6.47537 20.1492 6.19172 19.6426L6.19507 19.6443ZM9.89937 19.8638C10.3173 19.9398 10.7184 19.9027 11.1045 19.7524C11.4905 19.6021 11.8279 19.3369 12.1183 18.9569C12.4036 18.5837 12.5698 18.1885 12.6151 17.7748C12.6604 17.361 12.5933 16.9608 12.412 16.574C12.2307 16.1873 11.9454 15.8428 11.556 15.5405C11.1649 15.2382 10.7621 15.0473 10.3475 14.968C9.93294 14.8886 9.53347 14.9224 9.14911 15.0693C8.76643 15.2162 8.42571 15.483 8.13198 15.8698C7.84161 16.2498 7.67377 16.6466 7.62845 17.0604C7.58314 17.4742 7.65027 17.8744 7.83154 18.2611C8.01281 18.6479 8.29815 18.9924 8.68754 19.2947C9.07862 19.597 9.48312 19.7861 9.90105 19.8621L9.89937 19.8638Z" fill="#B66DF8"/>
<path d="M13.4241 8.14346L17.4708 13.4075L20.1194 11.3454L21.1768 12.7201L16.9337 16.0218L11.8279 9.38136L13.4207 8.14177L13.4241 8.14346Z" fill="#B66DF8"/>
<path d="M20.0774 3.91467L23.4561 11.5903L21.5594 12.4347L18.1808 4.75908L20.0774 3.91467ZM22.7797 11.8926L22.0563 10.2477L23.4947 9.60597C23.785 9.47593 24.0502 9.31381 24.2902 9.11959C24.5303 8.92538 24.7166 8.69739 24.8508 8.43731C24.9834 8.17724 25.0506 7.87831 25.0506 7.54224C25.0506 7.20617 24.9583 6.82956 24.7753 6.41242C24.5924 5.99529 24.3758 5.67441 24.1291 5.44811C23.8824 5.22181 23.6172 5.07151 23.3369 4.99551C23.0566 4.91951 22.7629 4.906 22.4591 4.95498C22.1553 5.00395 21.8565 5.09177 21.5662 5.22181L20.1277 5.86356L19.4043 4.21866L20.9082 3.5482C21.7441 3.17666 22.5363 3.01115 23.2849 3.05337C24.0334 3.09559 24.6998 3.32696 25.2856 3.74917C25.8713 4.16968 26.3379 4.77596 26.6854 5.56464C27.0294 6.34656 27.1604 7.09977 27.0798 7.82258C26.9976 8.5454 26.7223 9.20066 26.249 9.78667C25.7773 10.3727 25.1227 10.8523 24.2886 11.2255L22.7847 11.896L22.7797 11.8926Z" fill="#B66DF8"/>
<path d="M31.2205 0.352962L37.815 0L37.9107 1.80872L35.6129 1.932L35.9604 8.50656L33.9496 8.61464L33.6022 2.04009L31.3162 2.16337L31.2205 0.354651V0.352962Z" fill="#B66DF8"/>
<path d="M39.1192 2.39304C39.4415 1.91004 39.8392 1.51486 40.3109 1.2075C40.7825 0.900132 41.3079 0.694096 41.8853 0.591079C42.4626 0.488061 43.0652 0.496505 43.6896 0.616411C44.3223 0.739694 44.8846 0.955862 45.3797 1.26829C45.8749 1.58072 46.2844 1.96746 46.6084 2.42851C46.9323 2.88955 47.1538 3.40633 47.2713 3.97377C47.3888 4.5429 47.3871 5.14412 47.2646 5.7808C47.1421 6.41749 46.9239 6.98155 46.6067 7.47299C46.2895 7.96613 45.8967 8.36976 45.4284 8.68556C44.9585 9.00137 44.4348 9.21585 43.8557 9.32731C43.2767 9.43877 42.6657 9.43202 42.0262 9.30874C41.3784 9.18376 40.806 8.96084 40.3092 8.63997C39.8124 8.31909 39.4045 7.9256 39.0856 7.45611C38.7667 6.98662 38.5502 6.46477 38.4394 5.88889C38.327 5.313 38.332 4.70841 38.4529 4.07172C38.5754 3.43504 38.7969 2.87604 39.1209 2.39304H39.1192ZM40.5878 5.82302C40.707 6.23341 40.9202 6.57792 41.2273 6.85658C41.5345 7.13523 41.9222 7.321 42.3888 7.4122C42.8487 7.5017 43.2733 7.473 43.661 7.32945C44.0487 7.18421 44.3744 6.9444 44.6362 6.60832C44.898 6.27225 45.0759 5.86187 45.1699 5.3738C45.2639 4.88742 45.2522 4.43989 45.1364 4.0295C45.0206 3.62081 44.8108 3.27629 44.5086 2.99764C44.2065 2.71898 43.8171 2.53321 43.3404 2.44202C42.8722 2.35082 42.4442 2.37784 42.0565 2.52308C41.6687 2.66832 41.3431 2.90813 41.0813 3.2442C40.8194 3.58028 40.6415 3.99066 40.5475 4.47873C40.4535 4.96511 40.467 5.41433 40.5878 5.82302Z" fill="#B66DF8"/>
<path d="M52.6087 10.7983C52.6625 11.1023 52.7598 11.3725 52.9025 11.6123C53.0451 11.8504 53.2331 12.048 53.4647 12.2017C53.7098 12.3638 53.9532 12.4381 54.1932 12.4195C54.4332 12.4026 54.6229 12.2861 54.7638 12.0733C54.8813 11.8926 54.9317 11.717 54.9099 11.5447C54.8897 11.3725 54.8092 11.1681 54.6699 10.9317C54.5305 10.6953 54.3325 10.4014 54.0774 10.0501C53.9515 9.87956 53.8155 9.67014 53.6695 9.4202C53.5235 9.17025 53.411 8.89667 53.3305 8.59775C53.2499 8.30052 53.2264 7.98809 53.26 7.66046C53.2935 7.33283 53.4245 6.99675 53.6527 6.64886C53.9246 6.2351 54.267 5.94969 54.6782 5.79263C55.0911 5.63557 55.5326 5.60179 56.0042 5.68961C56.4758 5.77743 56.9357 5.97164 57.3872 6.27056C57.8505 6.57961 58.2029 6.92413 58.4446 7.30412C58.6847 7.6841 58.8424 8.06577 58.9146 8.44913C58.9868 8.83249 59.0036 9.18377 58.965 9.50295L57.2093 9.37122C57.2194 9.13817 57.2009 8.91693 57.1523 8.70752C57.1036 8.49811 57.0247 8.30727 56.9156 8.13332C56.8065 7.95938 56.6621 7.81414 56.4826 7.69423C56.2442 7.53548 56.0277 7.46624 55.833 7.48651C55.6383 7.50677 55.4923 7.5929 55.3916 7.74658C55.2858 7.90702 55.2556 8.08773 55.2993 8.28869C55.3429 8.48966 55.447 8.71765 55.6098 8.96929C55.7726 9.22092 55.979 9.51139 56.2291 9.84071C56.4137 10.0974 56.5698 10.3575 56.7024 10.6226C56.8333 10.8878 56.924 11.1597 56.9727 11.4417C57.0213 11.7237 57.018 12.0075 56.9609 12.2962C56.9055 12.585 56.7796 12.8755 56.5883 13.1694C56.3567 13.5223 56.0781 13.7908 55.7541 13.9732C55.4302 14.1556 55.0844 14.2586 54.7202 14.2857C54.356 14.311 53.9867 14.2705 53.6158 14.1624C53.2449 14.0543 52.8958 13.8922 52.5701 13.676C52.1186 13.3771 51.7544 13.0157 51.4724 12.5952C51.1921 12.1747 51.0008 11.7288 50.9001 11.2593C50.7994 10.7898 50.7776 10.3355 50.838 9.89644L52.5701 9.82551C52.5433 10.1717 52.555 10.496 52.6087 10.8V10.7983Z" fill="#B66DF8"/>
<path d="M63.4094 11.5481L57.3 17.2664L55.9287 15.782L62.0382 10.0636L63.4094 11.5481ZM62.8975 10.9942L64.0103 12.1966C64.492 12.7168 64.816 13.2302 64.9838 13.7334C65.1517 14.2367 65.1701 14.7197 65.0409 15.1774C64.9116 15.6367 64.6381 16.0623 64.2184 16.4541C63.8106 16.8358 63.3742 17.0756 62.9059 17.1736C62.4376 17.2732 61.961 17.2191 61.4742 17.0148C60.9858 16.8105 60.5024 16.4474 60.0207 15.9272L58.9079 14.7248L60.1214 13.5899L61.2342 14.7923C61.5095 15.0912 61.7931 15.2618 62.0852 15.3074C62.3755 15.3513 62.6458 15.2567 62.8958 15.0237C63.151 14.7839 63.2685 14.517 63.245 14.2215C63.2215 13.926 63.0721 13.6304 62.7968 13.3315L61.684 12.1291L62.8975 10.9942Z" fill="#B66DF8"/>
<path d="M68.6546 18.3878L61.627 22.9138L60.5226 21.176L67.5501 16.65L68.6546 18.3878Z" fill="#B66DF8"/>
<path d="M73 28.3332L64.7874 31.4001L67.5736 24.1686L63.1711 25.8135L62.4997 23.9913L70.7123 20.9244L67.9227 28.1458L72.3253 26.5009L73.0017 28.3332H73Z" fill="#B66DF8"/>
<path d="M71.6673 39.046C71.8889 39.2554 72.003 39.5189 72.0131 39.8398C72.0232 40.1758 71.9241 40.4511 71.716 40.6656C71.5079 40.8801 71.2528 40.9915 70.9507 41.0017C70.6485 41.0101 70.3884 40.9155 70.1668 40.7146C69.9453 40.5136 69.8311 40.2451 69.8211 39.909C69.811 39.5898 69.91 39.3179 70.1182 39.0967C70.3263 38.8738 70.5814 38.7589 70.8835 38.7488C71.1856 38.7403 71.4475 38.84 71.6673 39.0494V39.046Z" fill="#B66DF8"/>
<path d="M9.04286 49.6739L1.92927 53.5099L1 51.7987L8.11358 47.9626L9.04286 49.6739ZM11.6272 54.4345L4.51366 58.2706L3.58439 56.5593L10.698 52.7233L11.6272 54.4345ZM5.78145 49.8361L8.69621 55.2049L7.15176 56.0387L4.23537 50.6682L5.77982 49.8345L5.78145 49.8361Z" fill="#B66DF8"/>
<path d="M10.3709 56.6906C10.8933 56.4863 11.4271 56.3938 11.9706 56.41C12.5142 56.4262 13.0464 56.5528 13.5639 56.7896C14.0814 57.0264 14.5567 57.3638 14.9879 57.8017C15.4241 58.2461 15.7545 58.7279 15.9774 59.2453C16.2004 59.7627 16.3143 60.2931 16.3208 60.8365C16.3257 61.3799 16.2199 61.907 16.0018 62.4212C15.7838 62.9354 15.4518 63.409 15.0058 63.8437C14.5599 64.2784 14.0766 64.6044 13.5541 64.8185C13.0317 65.0326 12.4963 65.1365 11.9495 65.1283C11.4027 65.1202 10.8672 65.0002 10.3432 64.7699C9.82078 64.5396 9.33743 64.1989 8.89476 63.7496C8.44721 63.2938 8.11358 62.804 7.89225 62.2768C7.67092 61.7513 7.56188 61.2144 7.56513 60.6694C7.56839 60.1244 7.68231 59.5924 7.90853 59.0766C8.13474 58.5608 8.47 58.0856 8.91592 57.6492C9.36184 57.2145 9.84519 56.895 10.3676 56.6906H10.3709ZM9.66129 60.2055C9.53272 60.5948 9.51319 60.9841 9.60433 61.3734C9.69547 61.7627 9.90215 62.1211 10.226 62.4504C10.5434 62.7748 10.8965 62.9857 11.2855 63.0846C11.6744 63.1836 12.065 63.1722 12.4589 63.0522C12.8527 62.9321 13.2189 62.7051 13.5607 62.3709C13.9024 62.0384 14.1384 61.6783 14.2702 61.2907C14.4021 60.9046 14.4232 60.517 14.3353 60.1309C14.2474 59.7449 14.0375 59.3848 13.7088 59.049C13.3849 58.7198 13.0285 58.5057 12.6411 58.4067C12.2522 58.3078 11.8616 58.3191 11.4678 58.4392C11.0739 58.5592 10.7061 58.7863 10.366 59.1204C10.0242 59.4529 9.78986 59.8146 9.65966 60.2039L9.66129 60.2055Z" fill="#B66DF8"/>
<path d="M20.1372 62.2119L16.7195 67.6197L19.4667 69.3439L18.5732 70.7567L14.1726 67.9944L18.4837 61.1738L20.1356 62.2119H20.1372Z" fill="#B66DF8"/>
<path d="M24.9805 64.7521L22.2708 72.348L20.3764 71.6765L23.0861 64.0806L24.9805 64.7521ZM21.5954 72.1095L22.1764 70.4827L23.6134 70.992C23.9031 71.0942 24.1977 71.159 24.4955 71.1817C24.7933 71.2061 25.0749 71.172 25.3418 71.0779C25.6087 70.9855 25.8528 70.8217 26.0757 70.5865C26.2987 70.3513 26.4826 70.0285 26.6307 69.6165C26.7788 69.2045 26.839 68.8363 26.8146 68.5152C26.7902 68.1924 26.7056 67.9118 26.5575 67.6717C26.4094 67.4316 26.2124 67.2273 25.9667 67.0586C25.7209 66.8899 25.4524 66.7536 25.1611 66.6515L23.7241 66.1421L24.3051 64.5153L25.8072 65.0473C26.6421 65.3425 27.3077 65.7545 27.8073 66.2816C28.3053 66.8088 28.6211 67.4138 28.7545 68.0967C28.8863 68.7795 28.8147 69.5111 28.5348 70.2929C28.2581 71.0666 27.8529 71.6781 27.3158 72.1274C26.7788 72.5767 26.1506 72.8492 25.4296 72.9449C24.7087 73.0406 23.9308 72.94 23.0959 72.6432L21.5937 72.1112L21.5954 72.1095Z" fill="#B66DF8"/>
<path d="M32.7971 66.8931L39.1979 66.9644L39.1783 68.7032L36.9487 68.6789L36.8788 75.0015L34.9258 74.9804L34.9958 68.6578L32.7776 68.6335L32.7971 66.8947V66.8931Z" fill="#B66DF8"/>
<path d="M39.2223 69.3797C39.3297 68.8315 39.5348 68.3319 39.8407 67.8826C40.1467 67.4333 40.5373 67.0538 41.0141 66.744C41.491 66.4342 42.0313 66.2152 42.6334 66.0871C43.2437 65.9573 43.828 65.9362 44.3862 66.0254C44.9444 66.1146 45.4554 66.3028 45.9192 66.5883C46.3831 66.8754 46.7737 67.2468 47.0926 67.7042C47.4116 68.1632 47.6362 68.6953 47.7664 69.3035C47.8966 69.9118 47.9129 70.4924 47.8152 71.0472C47.7176 71.6019 47.519 72.108 47.2179 72.5638C46.9185 73.0195 46.5295 73.4072 46.0543 73.7235C45.5791 74.0414 45.0323 74.2653 44.4139 74.3966C43.7889 74.5296 43.1933 74.5491 42.6302 74.4518C42.0654 74.3561 41.5528 74.1614 41.0922 73.8662C40.6317 73.5727 40.2427 73.1915 39.9253 72.7243C39.608 72.2572 39.385 71.7203 39.2548 71.1121C39.1246 70.5038 39.1133 69.9247 39.2207 69.3765L39.2223 69.3797ZM41.8213 71.8598C42.0817 72.1777 42.4023 72.4016 42.7799 72.5329C43.1575 72.6643 43.5741 72.6822 44.0265 72.5865C44.4708 72.4924 44.8386 72.3075 45.1316 72.0334C45.4229 71.7592 45.623 71.4251 45.7321 71.0277C45.8411 70.6319 45.8444 70.2005 45.7451 69.735C45.6458 69.2694 45.4668 68.8769 45.2097 68.559C44.9525 68.2411 44.6368 68.0156 44.2609 67.8826C43.8866 67.7512 43.4683 67.7334 43.0094 67.8307C42.5569 67.9264 42.1859 68.1113 41.8929 68.3854C41.6016 68.6596 41.4014 68.9953 41.2924 69.3911C41.185 69.7869 41.1801 70.2183 41.2794 70.6838C41.3787 71.1494 41.5593 71.5403 41.8213 71.8582V71.8598Z" fill="#B66DF8"/>
<path d="M54.6472 67.9848C54.9353 68.0562 55.212 68.0757 55.4789 68.0416C55.7458 68.0075 55.9931 67.9199 56.2194 67.774C56.4586 67.6215 56.6197 67.435 56.6978 67.216C56.7776 66.997 56.7499 66.7845 56.6164 66.5769C56.5042 66.4017 56.3691 66.2898 56.2096 66.2412C56.0501 66.1925 55.8385 66.1844 55.5749 66.2152C55.3112 66.246 54.9744 66.306 54.5642 66.3936C54.3641 66.439 54.1265 66.4763 53.8482 66.5072C53.5715 66.538 53.2851 66.5315 52.9905 66.4861C52.6959 66.4407 52.4127 66.3401 52.1377 66.1828C51.8627 66.0254 51.6169 65.7789 51.4021 65.4415C51.145 65.0409 51.0278 64.6272 51.0522 64.2023C51.0766 63.7773 51.2198 63.3734 51.4818 62.9923C51.7455 62.6111 52.097 62.2786 52.5381 61.998C52.9921 61.7092 53.4348 61.5324 53.8644 61.4676C54.2941 61.4027 54.6912 61.414 55.0574 61.5C55.4235 61.586 55.7393 61.7076 56.0062 61.8666L55.1989 63.3653C54.9971 63.2664 54.7953 63.1966 54.5919 63.1577C54.3885 63.1188 54.1883 63.1139 53.993 63.1431C53.7961 63.1723 53.6106 63.242 53.4364 63.354C53.2021 63.5032 53.0572 63.667 52.997 63.8454C52.9384 64.0239 52.9563 64.1877 53.0523 64.3369C53.1516 64.4926 53.2997 64.5899 53.4934 64.6305C53.6887 64.671 53.9279 64.6678 54.2143 64.6224C54.5008 64.577 54.8377 64.5072 55.2266 64.4148C55.5244 64.3531 55.8157 64.3142 56.1006 64.3012C56.3854 64.2882 56.6604 64.3158 56.9273 64.3823C57.1942 64.4488 57.4432 64.564 57.6759 64.7262C57.9086 64.8884 58.1153 65.1122 58.2976 65.3961C58.5173 65.7383 58.6443 66.0887 58.6768 66.4471C58.7094 66.804 58.6654 67.1495 58.545 67.482C58.4245 67.8145 58.2439 68.1227 58.0014 68.4098C57.7589 68.6953 57.4806 68.9402 57.1616 69.1429C56.7206 69.4235 56.2584 69.6068 55.7783 69.6896C55.2966 69.7723 54.8295 69.7674 54.3771 69.6733C53.923 69.5793 53.5162 69.4203 53.1516 69.1965L53.7717 67.6393C54.0662 67.7983 54.3576 67.9135 54.6456 67.9848H54.6472Z" fill="#B66DF8"/>
<path d="M57.0494 58.7134L62.7682 64.4148L61.3865 65.7902L55.6677 60.0888L57.0494 58.7134ZM56.5335 59.2259L57.6531 58.11C58.1381 57.6266 58.6199 57.2957 59.1 57.1173C59.5801 56.9389 60.0422 56.9032 60.4898 57.0119C60.9357 57.1206 61.3556 57.3704 61.7478 57.7613C62.1286 58.1408 62.376 58.556 62.4867 59.0037C62.599 59.4514 62.5648 59.9153 62.3841 60.3922C62.2051 60.8707 61.8715 61.3508 61.3865 61.8341L60.2668 62.9501L59.1309 61.8179L60.2506 60.702C60.5289 60.4246 60.6835 60.1456 60.716 59.8634C60.7486 59.5812 60.6477 59.3233 60.4133 59.0897C60.1741 58.8512 59.9121 58.7474 59.6289 58.7799C59.3457 58.8123 59.0658 58.9664 58.7875 59.2438L57.6678 60.3597L56.5318 59.2276L56.5335 59.2259Z" fill="#B66DF8"/>
<path d="M61.3816 53.6008L67.9533 58.2998L66.7945 59.9088L60.2229 55.2099L61.3816 53.6008Z" fill="#B66DF8"/>
<path d="M65.2745 46L73 49.5165L66.168 52.5351L70.3098 54.4199L69.5319 56.1165L61.8064 52.6L68.6335 49.5928L64.4917 47.708L65.2745 46Z" fill="#B66DF8"/>
</svg>
